<svg width="45" height="45" viewBox="0 0 45 45" fill="none" xmlns="http://www.w3.org/2000/svg">
<path d="M7.5 11.25C6.96875 11.25 6.52375 11.43 6.165 11.79C5.80625 12.15 5.62625 12.595 5.625 13.125C5.62375 13.655 5.80375 14.1 6.165 14.46C6.52625 14.82 6.97125 15 7.5 15H37.5C38.0313 15 38.4769 14.82 38.8369 14.46C39.1969 14.1 39.3763 13.655 39.375 13.125C39.3738 12.595 39.1938 12.1494 38.835 11.7881C38.4763 11.4269 38.0313 11.2475 37.5 11.25H7.5ZM7.5 20.625C6.96875 20.625 6.52375 20.805 6.165 21.165C5.80625 21.525 5.62625 21.97 5.625 22.5C5.62375 23.03 5.80375 23.475 6.165 23.835C6.52625 24.195 6.97125 24.375 7.5 24.375H37.5C38.0313 24.375 38.4769 24.195 38.8369 23.835C39.1969 23.475 39.3763 23.03 39.375 22.5C39.3738 21.97 39.1938 21.5244 38.835 21.1631C38.4763 20.8019 38.0313 20.6225 37.5 20.625H7.5ZM7.5 30C6.96875 30 6.52375 30.18 6.165 30.54C5.80625 30.9 5.62625 31.345 5.625 31.875C5.62375 32.405 5.80375 32.85 6.165 33.21C6.52625 33.57 6.97125 33.75 7.5 33.75H37.5C38.0313 33.75 38.4769 33.57 38.8369 33.21C39.1969 32.85 39.3763 32.405 39.375 31.875C39.3738 31.345 39.1938 30.8994 38.835 30.5381C38.4763 30.1769 38.0313 29.9975 37.5 30H7.5Z" fill="white"/>
</svg>
