<svg width="204" height="202" viewBox="0 0 204 202" fill="none" xmlns="http://www.w3.org/2000/svg">
<ellipse cx="102" cy="101" rx="102" ry="101" fill="#E83F25"/>
<path d="M120.62 112.206V122.714H123.64C153.662 122.714 178 141.134 178 163.857V169H27V163.857C27 141.134 51.3378 122.714 81.36 122.714H84.38V112.206C71.3658 107.527 62.011 97.9639 60.4504 86.6463C56.0526 86.1757 52.67 83.3154 52.67 79.857V71.857C52.67 68.4593 55.9351 65.6388 60.22 65.0947V61.5713C60.22 43.8982 79.1494 29.5713 102.5 29.5713C125.851 29.5713 144.78 43.8982 144.78 61.5713V65.0947C149.065 65.6388 152.33 68.4593 152.33 71.857V79.857C152.33 83.3154 148.947 86.1757 144.55 86.6463C142.989 97.9639 133.634 107.527 120.62 112.206Z" fill="#D0C6AC"/>
<mask id="mask0_257_177" style="mask-type:luminance" maskUnits="userSpaceOnUse" x="27" y="29" width="151" height="140">
<path d="M120.62 112.206V122.714H123.64C153.662 122.714 178 141.134 178 163.857V169H27V163.857C27 141.134 51.3378 122.714 81.36 122.714H84.38V112.206C71.3658 107.527 62.011 97.9639 60.4504 86.6463C56.0526 86.1757 52.67 83.3154 52.67 79.857V71.857C52.67 68.4593 55.9351 65.6388 60.22 65.0947V61.5713C60.22 43.8982 79.1494 29.5713 102.5 29.5713C125.851 29.5713 144.78 43.8982 144.78 61.5713V65.0947C149.065 65.6388 152.33 68.4593 152.33 71.857V79.857C152.33 83.3154 148.947 86.1757 144.55 86.6463C142.989 97.9639 133.634 107.527 120.62 112.206Z" fill="white"/>
</mask>
<g mask="url(#mask0_257_177)">
<path d="M226.32 29.5713H27V189.571H226.32V29.5713Z" fill="#FFDBB4"/>
</g>
<mask id="mask1_257_177" style="mask-type:luminance" maskUnits="userSpaceOnUse" x="27" y="29" width="151" height="140">
<path d="M120.62 112.206V122.714H123.64C153.662 122.714 178 141.134 178 163.857V169H27V163.857C27 141.134 51.3378 122.714 81.36 122.714H84.38V112.206C71.3658 107.527 62.011 97.9639 60.4504 86.6463C56.0526 86.1757 52.67 83.3154 52.67 79.857V71.857C52.67 68.4593 55.9351 65.6388 60.22 65.0947V61.5713C60.22 43.8982 79.1494 29.5713 102.5 29.5713C125.851 29.5713 144.78 43.8982 144.78 61.5713V65.0947C149.065 65.6388 152.33 68.4593 152.33 71.857V79.857C152.33 83.3154 148.947 86.1757 144.55 86.6463C142.989 97.9639 133.634 107.527 120.62 112.206Z" fill="white"/>
</mask>
<g mask="url(#mask1_257_177)">
<path fill-rule="evenodd" clip-rule="evenodd" d="M144.78 74.7144V87.8572C144.78 105.53 125.851 119.857 102.5 119.857C79.1494 119.857 60.22 105.53 60.22 87.8572V74.7144V83.2858C60.22 100.959 79.1494 115.286 102.5 115.286C125.851 115.286 144.78 100.959 144.78 83.2858V74.7144Z" fill="black" fill-opacity="0.1"/>
</g>
<path fill-rule="evenodd" clip-rule="evenodd" d="M128.14 122.883C156.057 124.614 178 142.311 178 163.887V169H27V163.887C27 142.116 49.3419 124.294 77.6193 122.84C77.5965 123.053 77.585 123.268 77.585 123.484C77.585 130.263 88.9088 135.759 102.877 135.759C116.846 135.759 128.17 130.263 128.17 123.484C128.17 123.283 128.16 123.082 128.14 122.883Z" fill="#E6E6E6"/>
<mask id="mask2_257_177" style="mask-type:luminance" maskUnits="userSpaceOnUse" x="27" y="122" width="151" height="47">
<path fill-rule="evenodd" clip-rule="evenodd" d="M128.14 122.883C156.057 124.614 178 142.311 178 163.887V169H27V163.887C27 142.116 49.3419 124.294 77.6193 122.84C77.5965 123.053 77.585 123.268 77.585 123.484C77.585 130.263 88.9088 135.759 102.877 135.759C116.846 135.759 128.17 130.263 128.17 123.484C128.17 123.283 128.16 123.082 128.14 122.883Z" fill="white"/>
</mask>
<g mask="url(#mask2_257_177)">
<path d="M202.16 106.143H2.83984V169H202.16V106.143Z" fill="#3C4F5C"/>
</g>
<mask id="mask3_257_177" style="mask-type:luminance" maskUnits="userSpaceOnUse" x="27" y="122" width="151" height="47">
<path fill-rule="evenodd" clip-rule="evenodd" d="M128.14 122.883C156.057 124.614 178 142.311 178 163.887V169H27V163.887C27 142.116 49.3419 124.294 77.6193 122.84C77.5965 123.053 77.585 123.268 77.585 123.484C77.585 130.263 88.9088 135.759 102.877 135.759C116.846 135.759 128.17 130.263 128.17 123.484C128.17 123.283 128.16 123.082 128.14 122.883Z" fill="white"/>
</mask>
<g mask="url(#mask3_257_177)">
<g opacity="0.6">
<path d="M102.878 139.721C119.404 139.721 132.802 132.836 132.802 124.342C132.802 115.848 119.404 108.962 102.878 108.962C86.3508 108.962 72.9531 115.848 72.9531 124.342C72.9531 132.836 86.3508 139.721 102.878 139.721Z" fill="black" fill-opacity="0.16"/>
</g>
</g>
<path fill-rule="evenodd" clip-rule="evenodd" d="M83.6247 94.4907C84.6893 99.9894 92.7317 104.429 102.5 104.429C112.291 104.429 120.353 99.9619 121.375 93.9938C121.451 93.7656 121.205 93 119.733 93C104.643 93 93.2431 93 85.266 93C83.9141 93 83.5267 93.7088 83.6247 94.4907Z" fill="black" fill-opacity="0.7"/>
<mask id="mask4_257_177" style="mask-type:luminance" maskUnits="userSpaceOnUse" x="83" y="93" width="39" height="12">
<path fill-rule="evenodd" clip-rule="evenodd" d="M83.6247 94.4907C84.6893 99.9894 92.7317 104.429 102.5 104.429C112.291 104.429 120.353 99.9619 121.375 93.9938C121.451 93.7656 121.205 93 119.733 93C104.643 93 93.2431 93 85.266 93C83.9141 93 83.5267 93.7088 83.6247 94.4907Z" fill="white"/>
</mask>
<g mask="url(#mask4_257_177)">
<path d="M110.805 86.7144H94.9498C92.8649 86.7144 91.1748 87.9935 91.1748 89.5715V93.0001C91.1748 94.578 92.8649 95.8572 94.9498 95.8572H110.805C112.89 95.8572 114.58 94.578 114.58 93.0001V89.5715C114.58 87.9935 112.89 86.7144 110.805 86.7144Z" fill="white"/>
</g>
<path fill-rule="evenodd" clip-rule="evenodd" d="M111.548 99.141C111.556 99.1884 111.56 99.2367 111.56 99.2857V104.429C111.56 107.9 107.842 110.714 103.255 110.714H102.5C97.9131 110.714 94.1948 107.9 94.1948 104.429V99.2857C94.1948 99.2367 94.1989 99.1884 94.2068 99.141C94.1989 99.0944 94.1948 99.0474 94.1948 99C94.1948 97.8954 96.392 97 99.1023 97C100.62 97 101.977 97.2808 102.877 97.722C103.778 97.2808 105.134 97 106.652 97C109.363 97 111.56 97.8954 111.56 99C111.56 99.0474 111.556 99.0944 111.548 99.141Z" fill="#FF4F6D"/>
<path fill-rule="evenodd" clip-rule="evenodd" d="M93.4399 83.2856C93.4399 85.8104 97.4962 87.8571 102.5 87.8571C107.504 87.8571 111.56 85.8104 111.56 83.2856" fill="black" fill-opacity="0.16"/>
<path fill-rule="evenodd" clip-rule="evenodd" d="M72.4207 73.2555C73.8148 71.0847 76.9539 69.5713 80.603 69.5713C84.2391 69.5713 87.3689 71.0741 88.7704 73.2325C89.1867 73.8737 88.5943 74.3984 87.9967 74.0096C86.1461 72.8055 83.5181 72.0535 80.603 72.0535C77.779 72.0535 75.2245 72.7591 73.3851 73.8979C72.7126 74.3143 72.013 73.8904 72.4207 73.2555Z" fill="black" fill-opacity="0.6"/>
<path fill-rule="evenodd" clip-rule="evenodd" d="M116.211 73.2555C117.605 71.0847 120.744 69.5713 124.393 69.5713C128.029 69.5713 131.159 71.0741 132.56 73.2325C132.977 73.8737 132.384 74.3984 131.787 74.0096C129.936 72.8055 127.308 72.0535 124.393 72.0535C121.569 72.0535 119.015 72.7591 117.175 73.8979C116.503 74.3143 115.803 73.8904 116.211 73.2555Z" fill="black" fill-opacity="0.6"/>
<path fill-rule="evenodd" clip-rule="evenodd" d="M80.2631 59.3706C75.8788 59.5238 68.7908 61.9351 68.9734 65.2813C68.9795 65.3908 69.192 65.4389 69.2959 65.3547C71.3758 63.6636 86.144 61.9549 91.3456 62.8604C91.8216 62.9434 92.1833 62.5879 91.8818 62.3312C89.2981 60.1322 84.191 59.2303 80.2631 59.3706Z" fill="black" fill-opacity="0.6"/>
<path fill-rule="evenodd" clip-rule="evenodd" d="M125.492 59.3706C129.876 59.5238 136.964 61.9351 136.781 65.2813C136.775 65.3908 136.563 65.4389 136.459 65.3547C134.379 63.6636 119.611 61.9549 114.409 62.8604C113.933 62.9434 113.572 62.5879 113.873 62.3312C116.457 60.1322 121.564 59.2303 125.492 59.3706Z" fill="black" fill-opacity="0.6"/>
<path d="M54.9349 151.857C58.6877 151.857 61.7299 149.554 61.7299 146.714C61.7299 143.874 58.6877 141.571 54.9349 141.571C51.1821 141.571 48.1399 143.874 48.1399 146.714C48.1399 149.554 51.1821 151.857 54.9349 151.857Z" fill="#F4F4F4"/>
<path d="M55.6899 109.571H54.1799V142.714H55.6899V109.571Z" fill="#F4F4F4"/>
<path d="M150.065 147.286C153.818 147.286 156.86 144.983 156.86 142.143C156.86 139.303 153.818 137 150.065 137C146.312 137 143.27 139.303 143.27 142.143C143.27 144.983 146.312 147.286 150.065 147.286Z" fill="#F4F4F4"/>
<path d="M150.82 105H149.31V138.143H150.82V105Z" fill="#F4F4F4"/>
<path d="M102.5 31.8571C110.839 31.8571 117.6 26.7404 117.6 20.4286C117.6 14.1167 110.839 9 102.5 9C94.1604 9 87.3999 14.1167 87.3999 20.4286C87.3999 26.7404 94.1604 31.8571 102.5 31.8571Z" fill="#F4F4F4"/>
<path fill-rule="evenodd" clip-rule="evenodd" d="M102.5 21C143.853 21 156.86 48.3161 156.86 67.8828V110.092C156.86 121.231 139.772 121.255 139.772 103.851V58.4484C139.772 54.9769 136.954 53.3056 132.361 53.3056H102.5H72.6386C68.0454 53.3056 65.2279 54.9769 65.2279 58.4484V103.851C65.2279 121.255 48.1399 121.231 48.1399 110.092V67.8828C48.1399 48.3161 61.1465 21 102.5 21Z" fill="#F4F4F4"/>
<mask id="mask5_257_177" style="mask-type:luminance" maskUnits="userSpaceOnUse" x="48" y="21" width="109" height="97">
<path fill-rule="evenodd" clip-rule="evenodd" d="M102.5 21C143.853 21 156.86 48.3161 156.86 67.8828V110.092C156.86 121.231 139.772 121.255 139.772 103.851V58.4484C139.772 54.9769 136.954 53.3056 132.361 53.3056H102.5H72.6386C68.0454 53.3056 65.2279 54.9769 65.2279 58.4484V103.851C65.2279 121.255 48.1399 121.231 48.1399 110.092V67.8828C48.1399 48.3161 61.1465 21 102.5 21Z" fill="white"/>
</mask>
<g mask="url(#mask5_257_177)">
<path d="M247.46 9H48.1399V169H247.46V9Z" fill="#25557C"/>
</g>
<mask id="mask6_257_177" style="mask-type:luminance" maskUnits="userSpaceOnUse" x="48" y="21" width="109" height="97">
<path fill-rule="evenodd" clip-rule="evenodd" d="M102.5 21C143.853 21 156.86 48.3161 156.86 67.8828V110.092C156.86 121.231 139.772 121.255 139.772 103.851V58.4484C139.772 54.9769 136.954 53.3056 132.361 53.3056H102.5H72.6386C68.0454 53.3056 65.2279 54.9769 65.2279 58.4484V103.851C65.2279 121.255 48.1399 121.231 48.1399 110.092V67.8828C48.1399 48.3161 61.1465 21 102.5 21Z" fill="white"/>
</mask>
<g mask="url(#mask6_257_177)">
<path d="M157.615 21H47.3848V47.2857H157.615V21Z" fill="black" fill-opacity="0.2"/>
</g>
<path fill-rule="evenodd" clip-rule="evenodd" d="M79.4724 37.5713L70.0349 27.2856H88.9099L79.4724 37.5713Z" fill="white" fill-opacity="0.5"/>
<path fill-rule="evenodd" clip-rule="evenodd" d="M102.877 37.5713L93.4399 27.2856H112.315L102.877 37.5713Z" fill="white" fill-opacity="0.5"/>
<path fill-rule="evenodd" clip-rule="evenodd" d="M126.282 37.5713L116.845 27.2856H135.72L126.282 37.5713Z" fill="white" fill-opacity="0.5"/>
<path fill-rule="evenodd" clip-rule="evenodd" d="M67.3923 32.4287L76.8298 42.7144H57.9548L67.3923 32.4287Z" fill="black" fill-opacity="0.5"/>
<path fill-rule="evenodd" clip-rule="evenodd" d="M90.7974 32.4287L100.235 42.7144H81.3599L90.7974 32.4287Z" fill="black" fill-opacity="0.5"/>
<path fill-rule="evenodd" clip-rule="evenodd" d="M114.202 32.4287L123.64 42.7144H104.765L114.202 32.4287Z" fill="black" fill-opacity="0.5"/>
<path fill-rule="evenodd" clip-rule="evenodd" d="M137.607 32.4287L147.045 42.7144H128.17L137.607 32.4287Z" fill="black" fill-opacity="0.5"/>
<path fill-rule="evenodd" clip-rule="evenodd" d="M115.658 106.239C113.761 107.55 111.739 108.14 109.184 107.727C108.744 107.656 106.952 105.134 102.5 105.134C98.0479 105.134 96.2556 107.656 95.8156 107.727C93.2605 108.14 91.2389 107.55 89.3411 106.239C85.7737 103.775 82.8069 100.376 84.5896 96.6681C85.5187 94.7354 87.0297 92.6136 89.7786 91.9977C92.7138 91.3403 96.835 91.9965 99.793 91.5476C100.751 91.402 101.798 91.1434 102.5 90.7143C103.201 91.1434 104.248 91.402 105.206 91.5476C108.164 91.9965 112.286 91.3403 115.221 91.9977C117.97 92.6136 119.481 94.7354 120.41 96.6681C122.193 100.376 119.226 103.775 115.658 106.239ZM144.841 65C142.266 69.8001 143.261 75.776 142.784 80.8148C142.397 84.9104 141.259 91.049 136.454 93.694C133.997 95.0466 129.525 97.3199 126.314 96.6858C124.104 96.2494 123.868 91.4515 120.964 89.6554C117.669 87.6185 113.555 86.7235 109.407 86.8616C107.618 86.9213 103.998 86.9071 102.5 87.9488C101.002 86.9071 97.3822 86.9213 95.5924 86.8616C91.4443 86.7235 87.3305 87.6185 84.036 89.6554C81.1316 91.4515 80.896 96.2494 78.6859 96.6858C75.4753 97.3199 71.0026 95.0466 68.5452 93.694C63.74 91.049 62.6027 84.9104 62.2152 80.8148C61.739 75.776 62.7334 69.8001 60.1586 65C58.906 65 59.7321 74.2165 59.7321 74.2165V85.8486C59.756 94.5847 66.9658 107.66 82.9514 112.653C86.8609 113.874 95.7164 115.857 102.5 115.857C109.283 115.857 118.139 114.063 122.048 112.842C138.034 107.849 145.244 94.5847 145.268 85.8486V74.2165C145.268 74.2165 146.094 65 144.841 65Z" fill="#331B0C"/>
<mask id="mask7_257_177" style="mask-type:luminance" maskUnits="userSpaceOnUse" x="59" y="65" width="87" height="51">
<path fill-rule="evenodd" clip-rule="evenodd" d="M115.658 106.239C113.761 107.55 111.739 108.14 109.184 107.727C108.744 107.656 106.952 105.134 102.5 105.134C98.0479 105.134 96.2556 107.656 95.8156 107.727C93.2605 108.14 91.2389 107.55 89.3411 106.239C85.7737 103.775 82.8069 100.376 84.5896 96.6681C85.5187 94.7354 87.0297 92.6136 89.7786 91.9977C92.7138 91.3403 96.835 91.9965 99.793 91.5476C100.751 91.402 101.798 91.1434 102.5 90.7143C103.201 91.1434 104.248 91.402 105.206 91.5476C108.164 91.9965 112.286 91.3403 115.221 91.9977C117.97 92.6136 119.481 94.7354 120.41 96.6681C122.193 100.376 119.226 103.775 115.658 106.239ZM144.841 65C142.266 69.8001 143.261 75.776 142.784 80.8148C142.397 84.9104 141.259 91.049 136.454 93.694C133.997 95.0466 129.525 97.3199 126.314 96.6858C124.104 96.2494 123.868 91.4515 120.964 89.6554C117.669 87.6185 113.555 86.7235 109.407 86.8616C107.618 86.9213 103.998 86.9071 102.5 87.9488C101.002 86.9071 97.3822 86.9213 95.5924 86.8616C91.4443 86.7235 87.3305 87.6185 84.036 89.6554C81.1316 91.4515 80.896 96.2494 78.6859 96.6858C75.4753 97.3199 71.0026 95.0466 68.5452 93.694C63.74 91.049 62.6027 84.9104 62.2152 80.8148C61.739 75.776 62.7334 69.8001 60.1586 65C58.906 65 59.7321 74.2165 59.7321 74.2165V85.8486C59.756 94.5847 66.9658 107.66 82.9514 112.653C86.8609 113.874 95.7164 115.857 102.5 115.857C109.283 115.857 118.139 114.063 122.048 112.842C138.034 107.849 145.244 94.5847 145.268 85.8486V74.2165C145.268 74.2165 146.094 65 144.841 65Z" fill="white"/>
</mask>
<g mask="url(#mask7_257_177)">
<path d="M214.24 50.1431H14.9199V189.572H214.24V50.1431Z" fill="#4A312C"/>
</g>
<g filter="url(#filter0_d_257_177)">
<path d="M102.5 65.0632C94.1665 65.0632 92.9645 59.8721 75.826 59.1373C58.6988 58.5522 53.2852 62.3994 53.256 65.0632C53.2837 67.5165 52.4038 73.8919 63.5151 81.3595C74.668 90.2238 86.0939 87.2179 90.1888 84.3225C94.2968 82.9844 98.9817 70.9767 102.5 70.9891C106.018 71.0016 110.703 82.9844 114.811 84.3225C118.906 87.2179 130.331 90.2238 141.484 81.3595C152.596 73.8919 151.716 67.5165 151.744 65.0632C151.714 62.3994 146.301 58.5522 129.173 59.1373C112.035 59.8721 110.833 65.0632 102.5 65.0632Z" fill="#F4F4F4"/>
<path d="M94.2924 70.9892C94.58 66.6131 84.5425 61.9383 73.7741 62.1003C63.0111 62.2709 61.6102 67.5019 61.4632 69.5077C61.1998 74.1552 67.7806 84.6019 79.9296 84.3225C92.0786 84.0317 94.1261 73.8766 94.2924 70.9892Z" fill="#2F383B"/>
<path d="M110.707 70.9892C110.42 66.6131 120.457 61.9383 131.225 62.1003C141.988 62.2709 143.389 67.5019 143.536 69.5077C143.8 74.1552 137.219 84.6019 125.07 84.3225C112.921 84.0317 110.873 73.8766 110.707 70.9892Z" fill="#2F383B"/>
</g>
<defs>
<filter id="filter0_d_257_177" x="53.249" y="59.0776" width="98.5015" height="30.1733" filterUnits="userSpaceOnUse" color-interpolation-filters="sRGB">
<feFlood flood-opacity="0" result="BackgroundImageFix"/>
<feColorMatrix in="SourceAlpha" type="matrix" values="0 0 0 0 0 0 0 0 0 0 0 0 0 0 0 0 0 0 127 0" result="hardAlpha"/>
<feOffset dy="2"/>
<feColorMatrix type="matrix" values="0 0 0 0 0 0 0 0 0 0 0 0 0 0 0 0 0 0 0.16 0"/>
<feBlend mode="normal" in2="BackgroundImageFix" result="effect1_dropShadow_257_177"/>
<feBlend mode="normal" in="SourceGraphic" in2="effect1_dropShadow_257_177" result="shape"/>
</filter>
</defs>
</svg>
