<svg width="51" height="50" viewBox="0 0 51 50" fill="none" xmlns="http://www.w3.org/2000/svg">
<path d="M51 21.835H0C0 21.835 1.53 35.6166 4.165 39.4356C7.14 43.6697 14.195 49.8133 25.5 49.8133C36.805 49.8133 43.86 43.6697 46.835 39.4356C49.47 35.6166 51 21.835 51 21.835Z" fill="#E0DAC6"/>
<path d="M51 21.8344C51 26.5667 39.61 30.3857 25.5 30.3857C11.39 30.4687 0 26.5667 0 21.8344C0 17.1022 11.39 13.2832 25.5 13.2832C39.61 13.2832 51 17.1022 51 21.8344Z" fill="#F9F3D9"/>
<path d="M50.15 21.6683C50.15 25.9854 39.1 29.4724 25.5 29.4724C11.9 29.4724 0.850021 25.9854 0.850021 21.6683C0.850021 17.3512 11.9 13.8643 25.5 13.8643C39.1 13.9473 50.15 17.4342 50.15 21.6683Z" fill="#E0DAC6"/>
<path d="M25.4999 16.6045C13.3449 16.6045 3.2299 19.3442 1.1899 22.9972C3.2299 26.6501 13.3449 29.4729 25.4999 29.4729C37.6549 29.4729 47.7699 26.7332 49.8099 22.9972C47.7699 19.4272 37.6549 16.6045 25.4999 16.6045Z" fill="#F2B200"/>
<path d="M25.5 37.1934C36.72 37.1934 46.155 34.5367 49.64 30.8007C50.065 28.8082 50.32 26.8157 50.575 25.2383C48.365 29.2233 37.995 32.2121 25.5 32.2121C13.005 32.2121 2.63505 29.2233 0.425049 25.2383C0.680049 26.8157 0.935049 28.8082 1.36005 30.8007C4.84505 34.5367 14.28 37.1934 25.5 37.1934Z" fill="#B3682A"/>
<path d="M38.7599 26.65L38.5899 24.5744L39.2699 24.4914C42.6699 24.2423 44.0299 22.997 44.0299 22.0838C44.1149 21.0045 42.8399 20.0082 40.9699 19.6761C40.4599 19.5931 39.9499 19.5101 39.4399 19.5101C37.7399 19.5101 36.3799 20.0082 34.6799 20.5894C32.4699 21.4196 30.0049 22.2498 26.3499 22.2498C24.2249 22.2498 21.8449 21.5856 19.3799 20.8385C16.9149 20.0913 14.2799 19.3441 11.9849 19.3441C10.3699 19.3441 9.00994 19.6761 7.81994 20.4233C7.13994 20.8385 6.11994 21.5856 6.37494 22.2498C6.88494 23.3291 9.94494 24.4084 12.5799 24.4084C12.9199 24.4084 13.1749 24.4084 13.5149 24.3254L14.1099 24.2423L14.4499 26.3179L13.6849 26.567C13.3449 26.567 13.0049 26.65 12.5799 26.65C9.77494 26.65 5.35494 25.5707 4.33494 23.2461C3.99494 22.4159 3.73994 20.6724 6.62994 18.9289C8.15994 18.0157 9.94494 17.5176 11.9849 17.5176C14.7049 17.5176 17.5949 18.3478 20.0599 19.095C22.3549 19.7592 24.5649 20.4233 26.3499 20.4233C29.5799 20.4233 31.8749 19.5931 33.9149 18.8459C35.6149 18.2648 37.3999 17.6006 39.4399 17.6006C40.1199 17.6006 40.7149 17.6836 41.3949 17.7666C44.3699 18.3478 46.3249 20.1743 46.2399 22.3328C46.1549 24.1593 44.2849 26.3179 39.4399 26.65H38.7599Z" fill="#FFE299"/>
<path d="M32.045 26.4004C30.09 26.4004 28.135 25.9853 26.18 25.0721C21.845 23.1626 18.36 22.7474 16.15 22.7474C13.43 22.7474 11.9 23.3286 11.305 23.5777L10.795 23.8267L9.77496 22.0003L10.37 21.7512C11.135 21.4191 13.26 20.5889 16.83 20.7549C20.145 20.8379 23.63 21.6682 27.115 23.2456C28.815 23.9928 30.43 24.4079 32.045 24.4079C34.85 24.4079 37.315 23.1626 38.845 21.004L39.185 20.5059L41.055 21.5851L40.63 22.1663C39.1 24.3249 36.89 25.7362 34.255 26.2344C33.575 26.3174 32.81 26.4004 32.045 26.4004Z" fill="#FFE299"/>
<path d="M26.4349 27.7291L25.9249 27.48C24.4799 26.8158 23.0349 26.4837 21.4199 26.4837C18.7849 26.4837 16.9149 27.48 16.9149 27.48L16.4049 27.7291L15.2149 25.9856L15.8099 25.6535C16.0649 25.4875 18.2749 24.4082 21.3349 24.4082C23.2049 24.4082 25.0749 24.8233 26.7749 25.6535L27.3699 25.9026L26.4349 27.7291ZM17.3399 8.8001L16.3199 6.8906L16.9149 6.55851C18.8699 5.56225 19.8049 1.90929 19.8049 1.82627L19.9749 1.24512L22.0999 1.82627L21.9299 2.40742C21.8449 2.57347 20.7399 6.97362 17.9349 8.46801L17.3399 8.8001ZM26.5199 10.1285L24.7349 8.96615L25.0749 8.46801C25.0749 8.46801 26.4349 6.39247 26.7749 4.48297L26.8599 3.90182L29.0699 4.2339L28.8999 4.73203C28.4749 7.22269 26.9449 9.5473 26.8599 9.63032L26.5199 10.1285ZM23.1199 9.29823L21.3349 8.13593L21.6749 7.6378C21.6749 7.6378 23.0349 5.56225 23.3749 3.65275L23.4599 3.0716L25.6699 3.32066L25.5849 3.90182C25.1599 6.39247 23.6299 8.71708 23.5449 8.8001L23.1199 9.29823Z" fill="#FFE299"/>
<path d="M51 8.30186L16.49 1.90918L16.32 2.82242L50.66 10.8755L51 8.30186ZM49.045 15.8568L16.235 3.73566L15.895 4.56588L48.195 18.2645L49.045 15.8568Z" fill="#D3976E"/>
<path d="M19.72 8.63427C19.04 8.63427 18.445 8.30218 17.935 7.72103C16.66 6.22664 17.255 3.32087 18.02 1.82648C18.7 0.332087 19.55 0 20.145 0C20.74 0 21.25 0.249065 21.59 0.664174C22.1 1.32835 22.015 2.15857 21.93 2.40763L20.06 2.32461C20.06 2.40763 19.89 2.73972 19.89 2.73972C19.295 4.15109 19.21 5.89455 19.55 6.39268C19.635 6.4757 19.635 6.4757 19.72 6.4757C19.72 6.4757 19.805 6.55872 19.89 6.30966L21.93 7.05685C21.505 7.97009 20.825 8.46823 19.975 8.63427H19.72Z" fill="#FFE299"/>
<path d="M23.375 9.87944C22.695 9.87944 22.015 9.54736 21.59 8.9662C19.805 6.64159 20.825 3.56978 21.845 2.15841C22.61 1.16215 23.29 0.913086 23.715 0.913086C23.885 0.913086 24.055 0.913086 24.14 0.996108C24.735 1.24517 25.67 1.66028 25.5 3.56978L23.545 3.2377C23.035 4.23396 22.61 6.72461 23.375 7.8039L25.33 8.63411C24.99 9.38131 24.395 9.87944 23.63 9.96246C23.46 9.87944 23.46 9.87944 23.375 9.87944Z" fill="#FFE299"/>
<path d="M26.775 19.1785C27.455 17.4351 25.755 14.5293 25.16 13.1179C24.055 10.4612 24.225 3.40438 26.265 2.07603C26.86 1.66093 27.54 1.5779 28.135 1.90999C28.73 2.15906 29.325 3.15532 29.155 4.31762L27.2 3.90251C26.69 5.39691 26.35 10.6273 27.37 12.8689C28.135 14.4463 29.58 16.9369 28.73 19.5936C28.135 21.2541 26.265 20.4239 26.775 19.1785Z" fill="#FFE299"/>
</svg>
