<svg width="74" height="74" viewBox="0 0 74 74" fill="none" xmlns="http://www.w3.org/2000/svg">
<path d="M49.5199 7.56654C50.387 8.43386 50.8741 9.61003 50.8741 10.8364C50.8741 12.0628 50.387 13.239 49.5199 14.1063L26.6262 37L49.5199 59.8938C50.3624 60.7661 50.8286 61.9344 50.818 63.147C50.8075 64.3597 50.3211 65.5197 49.4636 66.3772C48.6061 67.2347 47.4461 67.7211 46.2334 67.7317C45.0207 67.7422 43.8525 67.276 42.9802 66.4335L16.8165 40.2699C15.9495 39.4026 15.4624 38.2264 15.4624 37C15.4624 35.7737 15.9495 34.5975 16.8165 33.7302L42.9802 7.56654C43.8475 6.69949 45.0237 6.2124 46.25 6.2124C47.4764 6.2124 48.6526 6.69949 49.5199 7.56654Z" fill="white"/>
</svg>
