<svg width="75" height="75" viewBox="0 0 75 75" fill="none" xmlns="http://www.w3.org/2000/svg">
<path d="M24.8642 66.8177C23.9971 65.9504 23.51 64.7742 23.51 63.5479C23.51 62.3215 23.9971 61.1453 24.8642 60.278L47.7579 37.3842L24.8642 14.4905C24.0217 13.6182 23.5555 12.4499 23.5661 11.2373C23.5766 10.0246 24.063 8.86459 24.9205 8.00708C25.778 7.14956 26.938 6.66316 28.1507 6.65262C29.3634 6.64209 30.5316 7.10826 31.4039 7.95074L57.5676 34.1144C58.4346 34.9817 58.9217 36.1579 58.9217 37.3842C58.9217 38.6106 58.4346 39.7868 57.5676 40.6541L31.4039 66.8177C30.5366 67.6848 29.3604 68.1719 28.1341 68.1719C26.9077 68.1719 25.7315 67.6848 24.8642 66.8177Z" fill="white"/>
</svg>
